<svg width="65" height="65" viewBox="0 0 65 65" fill="none" xmlns="http://www.w3.org/2000/svg">
<path d="M28.8401 64.8175C18.5619 63.6222 9.33333 57.5093 4.23054 48.5167C-0.366369 40.4156 -1.26194 30.7801 1.76411 21.9803C6.59369 7.93581 20.1555 -1.01877 34.9129 0.0929363C50.095 1.23664 62.3976 12.6576 64.6378 27.6876C66.8718 42.6765 58.6055 57.0204 44.4321 62.749C39.8962 64.5823 33.7867 65.3928 28.8401 64.8175ZM20.7807 31.3565H48.533L56.388 44.4061C56.9336 43.4332 58.1036 40.1242 58.5212 38.3727C58.9718 36.4828 59.013 35.9935 59.0113 32.5489C59.0093 28.5783 58.7926 27.0253 57.8317 24.0971C57.1928 22.1502 55.1479 18.2519 53.8886 16.5802C51.555 13.4823 47.7449 10.2881 44.3461 8.58025C42.5289 7.66714 39.1062 6.56657 36.9589 6.20492C34.5472 5.79875 30.3431 5.79038 28.1344 6.18735C23.2713 7.0614 19.1123 8.98644 15.367 12.0969C10.7661 15.9179 7.63051 21.2335 6.33265 27.4125C5.74914 30.1905 5.74197 34.5816 6.31624 37.4583C7.29 42.3361 9.59493 46.9735 12.7192 50.3407L13.7423 51.4435H20.6856L20.7807 31.3565Z" fill="black"/>
</svg>
